<?xml version="1.0" standalone="no"?><!DOCTYPE svg PUBLIC "-//W3C//DTD SVG 1.1//EN" "http://www.w3.org/Graphics/SVG/1.1/DTD/svg11.dtd"><svg t="1645689903564" class="icon" viewBox="0 0 1024 1024" version="1.1" xmlns="http://www.w3.org/2000/svg" p-id="3129" xmlns:xlink="http://www.w3.org/1999/xlink" width="200" height="200"><defs><style type="text/css"></style></defs><path d="M870.144 429.248H640C729.152 112.192 578.56 96 578.56 96c-63.872 0-50.624 48.64-55.488 56.704 0 155.072-171.072 276.544-171.072 276.544v439.68c0 43.456 61.44 59.072 85.568 59.072h345.792c32.576 0 59.072-82.176 59.072-82.176C928 565.824 928 482.56 928 482.56c0-57.856-57.856-53.248-57.856-53.248zM254.72 416H123.52c-27.008 0-27.456 27.648-27.456 27.648l27.072 455.36c0 28.992 27.968 28.992 27.968 28.992h113.536c23.68 0 23.424-19.2 23.424-19.2V450.56c0-35.008-33.28-34.56-33.28-34.56z" p-id="3130"></path></svg>